<svg xmlns="http://www.w3.org/2000/svg" width="2400" height="1600" viewBox="0 0 2400 1600"><defs><filter id="g" x="0" y="0" width="100%" height="100%"><feTurbulence type="fractalNoise" baseFrequency=".85" numOctaves="2" stitchTiles="stitch"/><feColorMatrix type="saturate" values="0"/></filter><filter id="b" x="-50%" y="-50%" width="200%" height="200%"><feGaussianBlur stdDeviation="14.4"/></filter><filter id="bb" x="-50%" y="-50%" width="200%" height="200%"><feGaussianBlur stdDeviation="40"/></filter></defs><defs><linearGradient id="bg" x1="0" y1="0" x2="1" y2="1"><stop offset="0" stop-color="hsl(30 10% 51%)"/><stop offset="1" stop-color="hsl(30 10% 33%)"/></linearGradient></defs><rect width="2400" height="1600" fill="url(#bg)"/><polygon points="1110.9028628307767,628.2797918351945 1602.9606380629134,628.2797918351945 1492.6160941095184,1236.1603400517772 1000.5583188773816,1236.1603400517772" fill="hsl(40 20% 88%)" opacity="0.73" filter="url(#b)"/><line x1="1356.931750446845" y1="628.2797918351945" x2="1246.58720649345" y2="1236.1603400517772" stroke="hsl(30 10% 43%)" stroke-width="29" opacity=".7" filter="url(#b)"/><line x1="1055.730590854079" y1="932.2200659434859" x2="1547.7883660862158" y2="932.2200659434859" stroke="hsl(30 10% 43%)" stroke-width="29" opacity=".7" filter="url(#b)"/><polygon points="899.7042301536843,89.02789041973212 1357.0354298130637,89.02789041973212 1727.796263441262,749.0576154034572 1270.4650637818827,749.0576154034572" fill="hsl(40 20% 88%)" opacity="0.78" filter="url(#b)"/><line x1="1128.369829983374" y1="89.02789041973212" x2="1499.1306636115723" y2="749.0576154034572" stroke="hsl(30 10% 43%)" stroke-width="29" opacity=".7" filter="url(#b)"/><line x1="1085.0846469677836" y1="419.0427529115947" x2="1542.4158466271629" y2="419.0427529115947" stroke="hsl(30 10% 43%)" stroke-width="29" opacity=".7" filter="url(#b)"/><polygon points="704.6201176262434,393.3365058822135 1408.1869212163533,393.3365058822135 1463.1437174977114,1326.3293873119787 759.5769139076014,1326.3293873119787" fill="hsl(40 20% 88%)" opacity="0.59" filter="url(#b)"/><line x1="1056.4035194212984" y1="393.3365058822135" x2="1111.3603157026564" y2="1326.3293873119787" stroke="hsl(30 10% 43%)" stroke-width="29" opacity=".7" filter="url(#b)"/><line x1="732.0985157669224" y1="859.8329465970961" x2="1435.6653193570323" y2="859.8329465970961" stroke="hsl(30 10% 43%)" stroke-width="29" opacity=".7" filter="url(#b)"/><rect width="2400" height="1600" filter="url(#g)" opacity="0.07" style="mix-blend-mode:overlay"/></svg>