<svg xmlns="http://www.w3.org/2000/svg" width="1600" height="2000" viewBox="0 0 1600 2000"><defs><filter id="g" x="0" y="0" width="100%" height="100%"><feTurbulence type="fractalNoise" baseFrequency=".85" numOctaves="2" stitchTiles="stitch"/><feColorMatrix type="saturate" values="0"/></filter><filter id="b" x="-50%" y="-50%" width="200%" height="200%"><feGaussianBlur stdDeviation="6.4"/></filter><filter id="bb" x="-50%" y="-50%" width="200%" height="200%"><feGaussianBlur stdDeviation="100.0"/></filter></defs><defs><linearGradient id="bg" x1="0" y1="0" x2="0" y2="1"><stop offset="0" stop-color="hsl(230 15% 8%)"/><stop offset="1" stop-color="hsl(230 15% 16%)"/></linearGradient></defs><rect width="1600" height="2000" fill="url(#bg)"/><rect x="0" y="996.3122474477784" width="194.90258462281105" height="603.6877525522216" fill="hsl(230 15% 9%)"/><rect x="59.75823632485685" y="1477.5530380389905" width="19.2" height="36.0" fill="hsl(40 60% 67%)" opacity="0.85"/><rect x="132.9352937832804" y="1469.5521275604278" width="19.2" height="36.0" fill="hsl(40 60% 61%)" opacity="0.88"/><rect x="124.95673819664633" y="1178.925496535613" width="19.2" height="36.0" fill="hsl(40 60% 69%)" opacity="0.49"/><rect x="99.92731631591845" y="1167.978431906727" width="19.2" height="36.0" fill="hsl(40 60% 73%)" opacity="0.78"/><rect x="137.98452221185667" y="1271.5384389508815" width="19.2" height="36.0" fill="hsl(40 60% 68%)" opacity="0.53"/><rect x="205.00632554021115" y="434.0976286661287" width="238.22121536911095" height="1165.9023713338713" fill="hsl(230 15% 8%)"/><rect x="369.2530452044263" y="874.0518984811612" width="19.2" height="36.0" fill="hsl(40 60% 76%)" opacity="0.81"/><rect x="296.76081397442664" y="1381.0825278898883" width="19.2" height="36.0" fill="hsl(40 60% 60%)" opacity="0.62"/><rect x="367.02307625781407" y="609.8534558175411" width="19.2" height="36.0" fill="hsl(40 60% 76%)" opacity="0.79"/><rect x="258.70919123702964" y="1319.400057320574" width="19.2" height="36.0" fill="hsl(40 60% 70%)" opacity="0.60"/><rect x="255.560095390166" y="1052.8199834833993" width="19.2" height="36.0" fill="hsl(40 60% 74%)" opacity="0.56"/><rect x="359.87432353950817" y="663.3625755505868" width="19.2" height="36.0" fill="hsl(40 60% 64%)" opacity="0.88"/><rect x="356.604170924272" y="1091.2231905955348" width="19.2" height="36.0" fill="hsl(40 60% 56%)" opacity="0.88"/><rect x="491.16244585755777" y="719.5365591649178" width="183.12173216386626" height="880.4634408350822" fill="hsl(230 15% 5%)"/><rect x="595.5176417017503" y="820.5404629517709" width="19.2" height="36.0" fill="hsl(40 60% 62%)" opacity="0.74"/><rect x="567.383834112916" y="1023.7759843753479" width="19.2" height="36.0" fill="hsl(40 60% 78%)" opacity="0.85"/><rect x="605.1308336007111" y="1485.0965507798028" width="19.2" height="36.0" fill="hsl(40 60% 75%)" opacity="0.48"/><rect x="538.9926032582827" y="1488.0941748729379" width="19.2" height="36.0" fill="hsl(40 60% 63%)" opacity="0.50"/><rect x="708.9611857569519" y="764.5688586078332" width="232.60243951834764" height="835.4311413921668" fill="hsl(230 15% 9%)"/><rect x="772.4656004583825" y="1075.431252165965" width="19.2" height="36.0" fill="hsl(40 60% 75%)" opacity="0.77"/><rect x="849.3643179935464" y="1478.8503046434844" width="19.2" height="36.0" fill="hsl(40 60% 76%)" opacity="0.52"/><rect x="980.9895296687787" y="774.8723764130273" width="149.6910766430342" height="825.1276235869727" fill="hsl(230 15% 7%)"/><rect x="1019.4701141926308" y="1478.9359431670828" width="19.2" height="36.0" fill="hsl(40 60% 55%)" opacity="0.43"/><rect x="1058.087910740386" y="1455.5219599571483" width="19.2" height="36.0" fill="hsl(40 60% 63%)" opacity="0.81"/><rect x="1084.4983261845855" y="1221.5554742286847" width="19.2" height="36.0" fill="hsl(40 60% 58%)" opacity="0.49"/><rect x="1041.3532112399864" y="1175.00990841657" width="19.2" height="36.0" fill="hsl(40 60% 74%)" opacity="0.52"/><rect x="1095.891491669976" y="1010.0913618611819" width="19.2" height="36.0" fill="hsl(40 60% 69%)" opacity="0.46"/><rect x="1035.2963443539586" y="1420.5792516802735" width="19.2" height="36.0" fill="hsl(40 60% 71%)" opacity="0.80"/><rect x="1009.8366169698382" y="1312.051018993557" width="19.2" height="36.0" fill="hsl(40 60% 69%)" opacity="0.67"/><rect x="1001.139103497113" y="1295.6930822728689" width="19.2" height="36.0" fill="hsl(40 60% 80%)" opacity="0.67"/><rect x="1142.9272907292348" y="924.7862367284237" width="299.2641492797766" height="675.2137632715763" fill="hsl(230 15% 9%)"/><rect x="1262.3898624779445" y="1298.3880023578035" width="19.2" height="36.0" fill="hsl(40 60% 75%)" opacity="0.88"/><rect x="1294.0382511450214" y="1217.865865608166" width="19.2" height="36.0" fill="hsl(40 60% 67%)" opacity="0.77"/><rect x="1194.105684958075" y="1283.176742439398" width="19.2" height="36.0" fill="hsl(40 60% 78%)" opacity="0.58"/><rect x="1323.8174227732993" y="1121.1599510322458" width="19.2" height="36.0" fill="hsl(40 60% 75%)" opacity="0.42"/><rect x="1364.216058560258" y="1489.6989314814577" width="19.2" height="36.0" fill="hsl(40 60% 74%)" opacity="0.67"/><rect x="1343.6956845204625" y="1187.1036913243424" width="19.2" height="36.0" fill="hsl(40 60% 62%)" opacity="0.66"/><rect x="1253.151293803324" y="1265.8435647981132" width="19.2" height="36.0" fill="hsl(40 60% 74%)" opacity="0.80"/><rect x="1479.838239451687" y="366.09796152840954" width="219.30390289084656" height="1233.9020384715905" fill="hsl(230 15% 9%)"/><rect x="1554.9192126043702" y="1120.1294368988179" width="19.2" height="36.0" fill="hsl(40 60% 76%)" opacity="0.77"/><rect x="1531.2520516394416" y="587.7944331748301" width="19.2" height="36.0" fill="hsl(40 60% 72%)" opacity="0.55"/><rect x="1655.0926157310344" y="1178.205059822472" width="19.2" height="36.0" fill="hsl(40 60% 61%)" opacity="0.77"/><rect x="1629.412363703416" y="645.6399098372286" width="19.2" height="36.0" fill="hsl(40 60% 74%)" opacity="0.62"/><rect x="1619.3429659144524" y="926.5870422114712" width="19.2" height="36.0" fill="hsl(40 60% 56%)" opacity="0.76"/><rect x="1565.364476150987" y="1003.1948406572596" width="19.2" height="36.0" fill="hsl(40 60% 69%)" opacity="0.45"/><rect x="1583.0900615790154" y="602.6255096404543" width="19.2" height="36.0" fill="hsl(40 60% 71%)" opacity="0.43"/><circle cx="215.30071053500652" cy="900.0" r="240.0" fill="hsl(38 70% 70%)" opacity=".35" filter="url(#bb)"/><rect x="208.9007105350065" y="1600.0" width="12.8" height="400.0" fill="hsl(38 70% 60%)" opacity=".25" filter="url(#b)"/><circle cx="211.3441915708725" cy="900.0" r="240.0" fill="hsl(38 70% 70%)" opacity=".35" filter="url(#bb)"/><rect x="204.9441915708725" y="1600.0" width="12.8" height="400.0" fill="hsl(38 70% 60%)" opacity=".25" filter="url(#b)"/><circle cx="973.8758773224486" cy="900.0" r="240.0" fill="hsl(38 70% 70%)" opacity=".35" filter="url(#bb)"/><rect x="967.4758773224486" y="1600.0" width="12.8" height="400.0" fill="hsl(38 70% 60%)" opacity=".25" filter="url(#b)"/><rect y="1600.0" width="1600" height="400.0" fill="hsl(230 15% 12%)" opacity=".6"/><rect width="1600" height="2000" filter="url(#g)" opacity="0.08" style="mix-blend-mode:overlay"/></svg>